<svg xmlns="http://www.w3.org/2000/svg" xmlns:xlink="http://www.w3.org/1999/xlink" width="20" height="20" viewBox="0 0 512 512">
  <defs>
    <linearGradient id="linear-gradient" x1="0.795" y1="0.092" x2="0.214" y2="0.868" gradientUnits="objectBoundingBox">
      <stop offset="0" stop-color="#d43d92"/>
      <stop offset="0.476" stop-color="#fd5340"/>
      <stop offset="1" stop-color="#ffbe50"/>
    </linearGradient>
  </defs>
  <g id="Group_198" data-name="Group 198" transform="translate(-14609 2812)">
    <rect id="instagram_1_" data-name="instagram (1)" width="512" height="512" rx="256" transform="translate(14609 -2812)" fill="url(#linear-gradient)"/>
    <path id="Icon_awesome-instagram" data-name="Icon awesome-instagram" d="M132.355,66.7a67.84,67.84,0,1,0,67.84,67.84A67.733,67.733,0,0,0,132.355,66.7Zm0,111.946a44.105,44.105,0,1,1,44.105-44.105A44.185,44.185,0,0,1,132.355,178.644ZM218.794,63.923A15.824,15.824,0,1,1,202.97,48.1,15.787,15.787,0,0,1,218.794,63.923Zm44.932,16.06c-1-21.2-5.845-39.972-21.374-55.441C226.882,9.072,208.107,4.23,186.91,3.168c-21.846-1.24-87.325-1.24-109.171,0C56.6,4.171,37.827,9.013,22.3,24.482S1.987,58.727.925,79.924c-1.24,21.846-1.24,87.325,0,109.171,1,21.2,5.845,39.972,21.374,55.441s34.245,20.311,55.441,21.374c21.846,1.24,87.325,1.24,109.171,0,21.2-1,39.972-5.845,55.441-21.374,15.469-15.469,20.311-34.245,21.374-55.441,1.24-21.846,1.24-87.266,0-109.112ZM235.5,212.534a44.653,44.653,0,0,1-25.152,25.152c-17.418,6.908-58.748,5.314-78,5.314s-60.637,1.535-78-5.314a44.653,44.653,0,0,1-25.152-25.152c-6.908-17.418-5.314-58.748-5.314-78s-1.535-60.637,5.314-78A44.653,44.653,0,0,1,54.359,31.39c17.418-6.908,58.748-5.314,78-5.314s60.637-1.535,78,5.314A44.653,44.653,0,0,1,235.5,56.543c6.908,17.418,5.314,58.748,5.314,78S242.411,195.176,235.5,212.534Z" transform="translate(14732.541 -2690.484)" fill="#fff"/>
  </g>
</svg>
