<svg xmlns="http://www.w3.org/2000/svg" width="20" height="20" viewBox="0 0 512 512">
  <g id="Group_199" data-name="Group 199" transform="translate(-14847 3500)">
    <rect id="facebook_2_" data-name="facebook (2)" width="512" height="512" rx="256" transform="translate(14847 -3500)" fill="#0077b5"/>
    <path id="Icon_awesome-linkedin-in" data-name="Icon awesome-linkedin-in" d="M52.943,236.518H3.907V78.607H52.943ZM28.4,57.067A28.533,28.533,0,1,1,56.8,28.4,28.638,28.638,0,0,1,28.4,57.067ZM236.469,236.518H187.539v-76.87c0-18.32-.37-41.814-25.495-41.814-25.495,0-29.4,19.9-29.4,40.494v78.19H83.659V78.607h47.03v21.54h.686c6.547-12.407,22.538-25.5,46.4-25.5,49.627,0,58.75,32.68,58.75,75.127v86.742Z" transform="translate(15002.327 -3372.518)" fill="#fff"/>
  </g>
</svg>
