<svg xmlns="http://www.w3.org/2000/svg" width="20" height="20" viewBox="0 0 512 512">
  <g id="Group_201" data-name="Group 201" transform="translate(-16293 3500)">
    <rect id="facebook_2_" data-name="facebook (2)" width="512" height="512" rx="256" transform="translate(16293 -3500)" fill="#00aced"/>
    <path id="Icon_ionic-logo-twitter" data-name="Icon ionic-logo-twitter" d="M249.527,28.423a102.912,102.912,0,0,1-29.233,8.044,51.082,51.082,0,0,0,22.4-28.182,101.147,101.147,0,0,1-32.335,12.356,50.888,50.888,0,0,0-88.067,34.806,49.835,49.835,0,0,0,1.314,11.62A144.259,144.259,0,0,1,18.659,13.806,51,51,0,0,0,34.485,81.842,49.718,49.718,0,0,1,11.35,75.48v.631A50.948,50.948,0,0,0,52.2,126.059,51.24,51.24,0,0,1,38.8,127.847a48.021,48.021,0,0,1-9.569-.946,50.984,50.984,0,0,0,47.583,35.385A102.059,102.059,0,0,1,13.559,184.1a103.184,103.184,0,0,1-12.145-.736A142.285,142.285,0,0,0,79.333,206.4c93.746,0,144.956-77.657,144.956-145.009,0-2.208-.053-4.417-.158-6.572A103.622,103.622,0,0,0,249.527,28.423Z" transform="translate(16423.92 -3336.165)" fill="#fff"/>
  </g>
</svg>
